<?xml version="1.0" encoding="UTF-8" standalone="no"?>
<!-- Created with Inkscape (http://www.inkscape.org/) -->

<svg
   xmlns:dc="http://purl.org/dc/elements/1.1/"
   xmlns:cc="http://creativecommons.org/ns#"
   xmlns:rdf="http://www.w3.org/1999/02/22-rdf-syntax-ns#"
   xmlns:svg="http://www.w3.org/2000/svg"
   xmlns="http://www.w3.org/2000/svg"
   xmlns:sodipodi="http://sodipodi.sourceforge.net/DTD/sodipodi-0.dtd"
   xmlns:inkscape="http://www.inkscape.org/namespaces/inkscape"
   width="8.9958334mm"
   height="8.9958334mm"
   viewBox="0 0 8.9958334 8.9958334"
   version="1.1"
   id="svg4762"
   inkscape:version="0.92.1 r15371"
   sodipodi:docname="logo_team7.svg">
  <defs
     id="defs4756" />
  <sodipodi:namedview
     id="base"
     pagecolor="#ffffff"
     bordercolor="#666666"
     borderopacity="1.0"
     inkscape:pageopacity="0.0"
     inkscape:pageshadow="2"
     inkscape:zoom="8"
     inkscape:cx="3.9709165"
     inkscape:cy="46.861112"
     inkscape:document-units="mm"
     inkscape:current-layer="layer1"
     showgrid="false"
     fit-margin-top="0"
     fit-margin-left="0"
     fit-margin-right="0"
     fit-margin-bottom="0"
     showborder="false"
     inkscape:window-width="1920"
     inkscape:window-height="1017"
     inkscape:window-x="-8"
     inkscape:window-y="-8"
     inkscape:window-maximized="1" />
  <metadata
     id="metadata4759">
    <rdf:RDF>
      <cc:Work
         rdf:about="">
        <dc:format>image/svg+xml</dc:format>
        <dc:type
           rdf:resource="http://purl.org/dc/dcmitype/StillImage" />
        <dc:title></dc:title>
      </cc:Work>
    </rdf:RDF>
  </metadata>
  <g
     inkscape:label="Calque 1"
     inkscape:groupmode="layer"
     id="layer1"
     transform="translate(-66.182327,-128.72555)">
    <path
       style="opacity:1;fill:none;fill-opacity:1;stroke:none;stroke-width:1.4547646;stroke-linecap:round;stroke-linejoin:round;stroke-miterlimit:4;stroke-dasharray:none;stroke-dashoffset:0;stroke-opacity:1"
       id="path5315"
       sodipodi:type="arc"
       sodipodi:cx="70.680244"
       sodipodi:cy="133.22346"
       sodipodi:rx="4.4979167"
       sodipodi:ry="4.4979167"
       sodipodi:start="0"
       sodipodi:end="6.2761691"
       sodipodi:open="true"
       d="m 75.178161,133.22346 a 4.4979167,4.4979167 0 0 1 -4.490027,4.49791 4.4979167,4.4979167 0 0 1 -4.505779,-4.48213 4.4979167,4.4979167 0 0 1 4.474221,-4.51363 4.4979167,4.4979167 0 0 1 4.521474,4.4663" />
    <g
       transform="matrix(0.05622396,0,0,0.05622396,59.544757,91.977315)"
       id="g4744"
       style="fill:#ffffff">
      <path
         sodipodi:nodetypes="cssscccccccscssccccsccsccccscssccccccscscscccscscccscccssccccccssccscccsscsccccsccsccssccccccccscccc"
         style="fill:#ffffff;stroke-width:0.209225"
         d="m 194.85709,795.31673 c -1.49349,-0.62837 -2.56628,-1.43019 -2.97754,-2.22548 -0.17249,-0.33356 -0.31362,-0.65822 -0.31362,-0.72147 0,-0.0633 2.92111,-0.11501 6.49135,-0.11501 h 6.49135 l -0.30053,0.57537 c -0.4348,0.83243 -1.32555,1.59794 -2.63936,2.26826 -1.00305,0.51177 -1.43269,0.59605 -3.3476,0.65668 -1.94779,0.0617 -2.33374,0.012 -3.40405,-0.43835 z m -6.80142,-6.31681 c -0.58623,-0.4106 -0.63208,-1.55049 -0.0824,-2.04795 0.34451,-0.31179 1.35427,-0.34627 10.14005,-0.34627 9.43275,0 9.76464,0.0135 9.97402,0.4047 0.32019,0.59828 0.26297,1.61127 -0.1122,1.98644 -0.2893,0.2893 -1.4771,0.32879 -9.89163,0.32879 -8.3165,0 -9.62346,-0.0425 -10.02785,-0.32571 z m 0,-5.64907 c -0.58623,-0.41061 -0.63208,-1.5505 -0.0824,-2.04796 0.34451,-0.31179 1.35427,-0.34626 10.14005,-0.34626 9.43275,0 9.76464,0.0135 9.97402,0.40469 0.32019,0.59828 0.26297,1.61127 -0.1122,1.98645 -0.2893,0.2893 -1.4771,0.32878 -9.89163,0.32878 -8.3165,0 -9.62346,-0.0425 -10.02785,-0.3257 z m -0.13931,-5.78838 c -0.43715,-0.62413 -0.41149,-1.48475 0.0569,-1.90866 0.34451,-0.31178 1.35427,-0.34626 10.14005,-0.34626 9.43275,0 9.76464,0.0135 9.97402,0.40469 0.32019,0.59829 0.26297,1.61128 -0.1122,1.98645 -0.28944,0.28944 -1.48976,0.32878 -10.03093,0.32878 h -9.70216 z m 6.57873,-9.04097 c -9.48609,-1.98652 -16.93167,-10.13778 -18.7188,-20.49291 -0.4108,-2.38031 -0.41207,-6.86367 -0.003,-9.2557 1.68525,-9.84544 7.59243,-20.58201 18.42094,-33.48087 2.75768,-3.28496 4.21789,-4.88702 4.45426,-4.88702 0.089,0 1.15477,1.15335 2.36843,2.563 12.18473,14.15233 18.56253,25.28249 20.36886,35.54652 0.40227,2.28579 0.40025,7.33712 -0.004,9.65444 -1.1862,6.8022 -5.22769,13.26025 -10.56775,16.88662 -1.79145,1.21655 -4.85264,2.63604 -6.83024,3.16723 -2.10657,0.56582 -7.41562,0.73294 -9.48923,0.29869 z m 10.37402,-6.8652 c 4.46307,-2.71117 8.31119,-7.73405 9.83011,-12.83108 0.79399,-2.66436 0.96921,-6.88932 0.3443,-8.30203 -0.51423,-1.1625 -1.39438,-1.69289 -2.81744,-1.69782 -1.06568,-0.004 -1.78584,0.39044 -2.5268,1.38288 -0.32813,0.4395 -0.43954,1.05703 -0.56384,3.12545 -0.13011,2.16496 -0.26124,2.85275 -0.81891,4.29517 -1.28854,3.33283 -3.94198,6.69138 -6.8341,8.65014 -1.78007,1.20561 -2.27302,2.03554 -2.12486,3.57746 0.10385,1.08069 0.47557,1.6464 1.51888,2.31151 0.96617,0.61593 2.4493,0.42586 3.99266,-0.51168 z M 157.7761,709.12403 c -6.76232,-3.91497 -8.89594,-5.2478 -9.25821,-5.78342 -0.84894,-1.25517 -0.50478,-2.93896 0.8425,-4.12189 1.12568,-0.98836 1.80025,-1.05506 3.3465,-0.33088 1.01541,0.47555 15.54127,8.7885 16.87121,9.65516 0.23706,0.15448 -0.008,0.72605 -1.25535,2.92527 -0.85249,1.50331 -1.59705,2.73551 -1.65459,2.73822 -0.0575,0.003 -4.05897,-2.28439 -8.89206,-5.08246 z m 71.17453,4.31294 c -0.27501,-0.43577 -0.99993,-1.67166 -1.61093,-2.74643 -0.90205,-1.58673 -1.05531,-1.99044 -0.81513,-2.14728 1.13399,-0.74054 17.02815,-9.86005 17.49256,-10.03662 1.74444,-0.66324 4.04121,1.27511 4.03878,3.40852 -0.001,1.36675 -0.53642,1.83447 -5.26003,4.59972 -3.39873,1.98966 -11.96101,6.94108 -13.19581,7.63092 -0.0822,0.0459 -0.37443,-0.27306 -0.64944,-0.70883 z m -51.65844,-14.53869 c -0.63594,-1.07002 -2.97264,-5.0952 -5.19266,-8.94485 -4.45647,-7.72775 -4.6675,-8.26635 -3.79324,-9.68093 0.87536,-1.41636 3.09532,-2.06784 4.40668,-1.2932 0.3107,0.18353 0.76584,0.63075 1.01144,0.99381 0.67785,1.00209 10.33217,17.76042 10.26416,17.81693 -0.18598,0.15452 -4.92746,2.81943 -5.20582,2.92589 -0.25248,0.0966 -0.61731,-0.34834 -1.49056,-1.81765 z m 37.49772,0.44967 c -1.32335,-0.78898 -2.48534,-1.46523 -2.58221,-1.50279 -0.21082,-0.0817 9.85956,-17.59749 10.57498,-18.39344 0.2738,-0.30462 0.88925,-0.67112 1.36768,-0.81446 0.80288,-0.24055 0.95847,-0.21727 2.02063,0.3024 1.98393,0.97065 2.46281,2.38464 1.50458,4.44262 -0.4571,0.98171 -6.09074,10.84195 -8.85924,15.50584 -0.63185,1.06443 -1.25491,1.9261 -1.38458,1.91483 -0.12966,-0.0113 -1.31849,-0.66603 -2.64184,-1.455 z m -19.82971,-15.69609 0.0944,-10.37638 0.84473,-1.0086 c 0.55419,-0.51687 1.39761,-0.61536 1.53207,-0.72589 0.13445,-0.11053 1.2647,-0.17932 1.56766,0 0.34827,0.0714 0.90105,0.4684 1.22839,0.72589 1.16699,0.91795 1.17214,0.88342 1.17214,11.81174 v 10.04952 h -3.24863 -3.24864 z"
         id="path4525"
         inkscape:connector-curvature="0" />
    </g>
  </g>
</svg>
